<?xml version="1.0" encoding="UTF-8"?>
<svg id="campus-map-G" xmlns="http://www.w3.org/2000/svg" viewBox="0 0 1200 900" role="img" aria-label="Ground Floor">
  <style>

svg { background: #e0e0e0; }
.corridor-base { fill:none; stroke:#000; stroke-width:14; stroke-linejoin:round; stroke-linecap:round; }
.corridor-inner { fill:none; stroke:#fff; stroke-width:10; stroke-linejoin:round; stroke-linecap:round; }
.text-main { font-family:Arial,sans-serif; font-size:18px; font-weight:bold; fill:#000033; text-anchor:middle; alignment-baseline:middle; }
.text-sm { font-family:Arial,sans-serif; font-size:13px; font-weight:bold; fill:#000033; text-anchor:middle; alignment-baseline:middle; }
.text-xs { font-family:Arial,sans-serif; font-size:11px; font-weight:bold; fill:#000033; text-anchor:middle; alignment-baseline:middle; }
.direction-box { fill:#fff; stroke:#000; stroke-width:2; rx:8; }
.direction-text { font-family:Arial,sans-serif; font-size:22px; font-weight:bold; fill:#000; text-anchor:middle; alignment-baseline:middle; }
.door-rect { fill:#fff; stroke:#000; stroke-width:2; rx:2; }
.path-line { fill:none; stroke:#6699ff; stroke-width:2; stroke-dasharray:8,5; opacity:.6; }
.path-node { fill:#fff; stroke:#ff9999; stroke-width:2; opacity:.6; }
.door-node { fill:#fc0; stroke:#c00; stroke-width:2; opacity:.8; }
.route-highlight { fill:none; stroke:#0055ff; stroke-width:6; stroke-linecap:round; stroke-linejoin:round; opacity:.85; }
#animated-dot { fill:#0022aa; stroke:#fff; stroke-width:2; }
#live-dot { fill:#28a745; stroke:#fff; stroke-width:2; }
#pulse-ring { fill:none; stroke:#28a745; stroke-width:2; }
.room { stroke:#000; stroke-width:2.5; }
.room-label { font-family:Arial,sans-serif; font-size:11px; font-weight:bold; fill:#000033; text-anchor:middle; alignment-baseline:middle; }
.room-label-sm { font-family:Arial,sans-serif; font-size:9px; font-weight:bold; fill:#000033; text-anchor:middle; alignment-baseline:middle; }
.room-label-lg { font-family:Arial,sans-serif; font-size:13px; font-weight:bold; fill:#000033; text-anchor:middle; alignment-baseline:middle; }

  </style>
  <g id="floor-G">
                        
                        <g id="main-corridors-G">
                            <path class="corridor-base" d="M 200 165 L 1010 165 L 1010 675 L 200 675 Z M 295 460 L 1010 460 M 1010 125 L 1010 165 M 600 675 L 600 800 M 600 330 L 600 460 M 295 165 L 295 330 L 600 330 M 295 330 L 295 460 M 500 460 L 500 675 M 700 460 L 700 675" />
                            <path class="corridor-inner" d="M 200 165 L 1010 165 L 1010 675 L 200 675 Z M 295 460 L 1010 460 M 1010 125 L 1010 165 M 600 675 L 600 800 M 600 330 L 600 460 M 295 165 L 295 330 L 600 330 M 295 330 L 295 460 M 500 460 L 500 675 M 700 460 L 700 675" />
                        </g>

                        <circle cx="600" cy="500" r="30" fill="#f0f0f0" stroke="#000" stroke-width="2"/>
                        <circle cx="600" cy="500" r="20" fill="#a0c4ff" stroke="#000" stroke-width="2"/>
                        <circle cx="600" cy="500" r="10" fill="#f4e04d" stroke="#000" stroke-width="1"/>
                        <rect x="740" y="340" width="200" height="100" fill="#000" />
                        <rect x="750" y="350" width="180" height="80" fill="#73d936" stroke="#000" stroke-width="2"/>
                        <rect x="740" y="475" width="200" height="160" fill="#000" />
                        <rect x="750" y="485" width="180" height="140" fill="#73d936" stroke="#000" stroke-width="2"/>
                        <rect x="360" y="350" width="90" height="90" fill="#000" />
                        <rect x="370" y="360" width="70" height="70" fill="#73d936" stroke="#000" stroke-width="2"/>
                        <rect x="230" y="475" width="220" height="30" fill="#000" />
                        <rect x="240" y="480" width="200" height="20" fill="#73d936" stroke="#000" stroke-width="2"/>

                        <circle cx="830" cy="400" r="20" fill="#2d6a4f" stroke="#000" stroke-width="2"/><circle cx="860" cy="420" r="15" fill="#1b4332" stroke="#000" stroke-width="2"/>
                        <circle cx="780" cy="580" r="20" fill="#2d6a4f" stroke="#000" stroke-width="2"/><circle cx="810" cy="600" r="18" fill="#1b4332" stroke="#000" stroke-width="2"/>

                        <g stroke="#000" stroke-width="3">
                            <rect x="170" y="95" width="80" height="60" fill="#e0e0e0" />
                            <rect x="260" y="95" width="190" height="60" fill="#9bc6ff" />
                            <rect x="460" y="95" width="255" height="60" fill="#9bc6ff" />
                            <rect x="725" y="95" width="295" height="60" fill="#d9bbf9" />
                            <rect x="1030" y="95" width="60" height="60" fill="#fbd394" />
                        </g>
                        <g stroke="#000" stroke-width="3">
                            <rect x="95" y="165" width="90" height="70" fill="#ffb3cc" />
                            <rect x="95" y="245" width="90" height="60" fill="#9bc6ff" />
                            <rect x="95" y="315" width="90" height="65" fill="#f9e770" />
                            <rect x="95" y="390" width="90" height="65" fill="#f9e770" />
                            <rect x="95" y="465" width="90" height="65" fill="#f9e770" />
                            <rect x="95" y="540" width="70" height="50" fill="#c6a1f9" />
                            <rect x="95" y="600" width="80" height="55" fill="#e0e0e0" /> 
                            <rect x="95" y="665" width="90" height="80" fill="#ffb3cc" />
                        </g>
                        <g stroke="#000" stroke-width="3">
                            <polygon points="1060,165 1105,165 1105,285 1025,285 1025,200" fill="#a0f4a0" />
                            <rect x="1035" y="295" width="70" height="50" fill="#c6a1f9" />
                            <rect x="1025" y="355" width="80" height="65" fill="#9bc6ff" />
                            <rect x="1035" y="430" width="70" height="55" fill="#fbd394" />
                            <rect x="1035" y="495" width="70" height="50" fill="#e0e0e0" /> 
                            <rect x="1025" y="555" width="80" height="80" fill="#d9bbf9" />
                            <rect x="1035" y="645" width="70" height="100" fill="#9bc6ff" />
                        </g>
                        <g stroke="#000" stroke-width="3">
                            
                            <rect x="195" y="685" width="300" height="60" fill="#e8f5e9" />
                            <rect x="210" y="703" width="135" height="35" fill="#d9bbf9" /> 
                            <rect x="355" y="703" width="135" height="35" fill="#9bc6ff" /> 
                            
                            <rect x="700" y="685" width="95" height="60" fill="#9bc6ff" />
                            <rect x="805" y="685" width="100" height="60" fill="#a0f4a0" />
                            <rect x="915" y="685" width="100" height="60" fill="#fbd394" />
                            <rect x="540" y="610" width="120" height="65" fill="#ffb3cc" /> 
                            <rect x="540" y="685" width="120" height="20" fill="#ffffff" /> 
                        </g>
                        <g stroke="#000" stroke-width="3">
                            <rect x="375" y="175" width="325" height="135" fill="#fde4a7" /> 
                            <rect x="715" y="175" width="165" height="135" fill="#ffb3cc" /> 
                            <rect x="230" y="350" width="50" height="90" fill="#ffb3cc" /> 
                            <rect x="220" y="520" width="155" height="145" fill="#a0f4a0" /> 
                            <rect x="385" y="530" width="70" height="120" fill="#9bc6ff" /> 
                        </g>
                        <g stroke="#000" stroke-width="3">
                            
                            <rect x="895" y="200" width="55" height="70" fill="#e0e0e0" />
                            <rect x="560" y="635" width="80" height="35" fill="#e0e0e0" />
                        </g>

                        <g id="physical-doors-g">
                            <rect x="202" y="153" width="16" height="4" class="door-rect" />
                            <rect x="347" y="153" width="16" height="4" class="door-rect" />
                            <rect x="577" y="153" width="16" height="4" class="door-rect" />
                            <rect x="862" y="153" width="16" height="4" class="door-rect" />
                            <rect x="1028" y="117" width="4" height="16" class="door-rect" />
                            <rect x="1023" y="217" width="4" height="16" class="door-rect" />
                            <rect x="1033" y="307" width="4" height="16" class="door-rect" />
                            <rect x="1023" y="382" width="4" height="16" class="door-rect" />
                            <rect x="1033" y="452" width="4" height="16" class="door-rect" />
                            <rect x="1033" y="512" width="4" height="16" class="door-rect" />
                            <rect x="1023" y="602" width="4" height="16" class="door-rect" />
                            <rect x="1033" y="672" width="4" height="16" class="door-rect" />
                            <rect x="957" y="683" width="16" height="4" class="door-rect" />
                            <rect x="847" y="683" width="16" height="4" class="door-rect" />
                            <rect x="739" y="683" width="16" height="4" class="door-rect" />
                            <rect x="592" y="673" width="16" height="4" class="door-rect" />
                            <rect x="592" y="763" width="16" height="4" class="door-rect" />
                            <rect x="454" y="683" width="16" height="4" class="door-rect" />
                            <rect x="412" y="618" width="16" height="4" class="door-rect" />
                            <rect x="500" y="705" width="4" height="16" class="door-rect" /> 
                            <rect x="270" y="701" width="12" height="4" class="door-rect" /> 
                            <rect x="420" y="701" width="12" height="4" class="door-rect" /> 
                            <rect x="287" y="663" width="16" height="4" class="door-rect" />
                            <rect x="244" y="683" width="16" height="4" class="door-rect" />
                            <rect x="183" y="672" width="4" height="16" class="door-rect" />
                            <rect x="173" y="622" width="4" height="16" class="door-rect" />
                            <rect x="163" y="557" width="4" height="16" class="door-rect" />
                            <rect x="183" y="492" width="4" height="16" class="door-rect" />
                            <rect x="183" y="417" width="4" height="16" class="door-rect" />
                            <rect x="228" y="397" width="4" height="16" class="door-rect" />
                            <rect x="183" y="342" width="4" height="16" class="door-rect" />
                            <rect x="183" y="267" width="4" height="16" class="door-rect" />
                            <rect x="180" y="197" width="4" height="16" class="door-rect" />
                            <rect x="878" y="277" width="4" height="16" class="door-rect" />
                            <rect x="592" y="308" width="16" height="4" class="door-rect" />
                            <rect x="282" y="438" width="16" height="4" class="door-rect" />
                        </g>

                        <text x="210" y="115" class="text-xs">Stair</text><text x="210" y="135" class="text-xs">Case</text>
                        <text x="355" y="130" class="text-sm">AI Laboratory</text>
                        <text x="585" y="130" class="text-sm">DS Laboratory</text>
                        <text x="870" y="130" class="text-sm">Core Space</text>
                        <text x="1060" y="115" class="text-xs">Yuvaraj</text><text x="1060" y="135" class="text-xs">Sir Cabin</text>
                        <text x="140" y="205" class="text-sm">SDC Hall</text>
                        <text x="1079" y="235" class="text-sm">CDC</text><text x="1065" y="255" class="text-sm">Hall</text>
                        <text x="140" y="270" class="text-xs">Student</text><text x="140" y="285" class="text-xs">Rest Room</text>
                        <text x="140" y="340" class="text-xs">2nd Year</text><text x="140" y="355" class="text-xs">AI-DS B</text>
                        <text x="140" y="415" class="text-xs">2nd Year</text><text x="140" y="430" class="text-xs">AI-DS A</text>
                        <text x="140" y="490" class="text-xs">2nd Year</text><text x="140" y="505" class="text-xs">CSE-C</text>
                        <text x="130" y="570" class="text-sm">Lift</text>
                        <text x="135" y="632" class="text-xs">Staircase</text>
                        <text x="140" y="695" class="text-xs">New</text><text x="140" y="710" class="text-xs">Building</text>
                        <text x="1070" y="325" class="text-sm">Lift</text>
                        <text x="1065" y="380" class="text-xs">Student</text><text x="1065" y="395" class="text-xs">Rest Room</text>
                        <text x="1070" y="450" class="text-xs">Second</text><text x="1070" y="465" class="text-xs">Entrance</text>
                        <text x="1070" y="525" class="text-xs">Staircase</text>
                        <text x="1065" y="585" class="text-xs">Principal</text><text x="1065" y="600" class="text-xs">Room</text>
                        <text x="1070" y="685" class="text-xs">Staff</text><text x="1070" y="700" class="text-xs">Rest Room</text>
                        
                        
                        <text x="355" y="694" class="text-xs" font-weight="bold">Library</text>
                        <text x="277" y="721" class="text-xs">Knowledge Hub</text>
                        <text x="427" y="721" class="text-xs">MAC Lab</text>

                        <text x="600" y="625" class="text-xs">Xerox Center</text>
                        <text x="600" y="695" class="text-sm">Reception</text>
                        <text x="600" y="780" class="text-sm">Main</text>
                        <text x="600" y="790" class="text-sm">Entrance</text>
                        <text x="747" y="720" class="text-xs">Cash Counter</text>
                        <text x="855" y="710" class="text-xs">Admission</text><text x="855" y="725" class="text-xs">Centre</text>
                        <text x="965" y="710" class="text-xs">Scholarship</text><text x="965" y="725" class="text-xs">Counter</text>
                        <text x="535" y="245" class="text-main">Amphi Theatre</text>
                        <text x="795" y="235" class="text-main" fill="#3a0ca3">Viscom</text><text x="795" y="260" class="text-main" fill="#3a0ca3">Hall</text>
                        <text x="255" y="400" class="text-main" fill="#3a0ca3">Stage</text>
                        <text x="295" y="600" class="text-main">Board Room</text>
                        <text x="420" y="580" class="text-xs">Idea Hub</text>
                        
                        
                        <text x="922" y="240" class="text-xs">Staircase</text>
                        <text x="600" y="653" class="text-xs">Staircase</text>

                        <g id="dynamic-paths-G"></g><g id="dynamic-nodes-G"></g><path id="highlighted-path-G" class="route-highlight" d="" />
                    </g>
</svg>
